<svg xmlns="http://www.w3.org/2000/svg" viewBox="0 0 287.45 206.31"><defs><style>.cls-1{fill:#4379c9;}</style></defs><title>blob-logoAsset 61</title><g id="Layer_2" data-name="Layer 2"><g id="Contact"><path class="cls-1" d="M243.66,107.37C246.06,61.54,218,18.43,173,4.48,140.78-5.5,107.28,1.72,82.05,21,39.86,7.75,9.72,7.59,1.84,22.27-5.7,36.32,10.43,65.64,41.3,95.84c-3.86,47,24.47,91.73,70.48,106a99,99,0,0,0,48.12,2.71c4-.77,9-1.71,7.24-2.77-1.32-.81-4.51-.22-18.45-2.08a208.13,208.13,0,0,1-34-7.36,89.37,89.37,0,0,1-31.83-17.55,90.9,90.9,0,0,1-21.84-27.72,92.77,92.77,0,0,1-7.57-20.18c-.88-6-1.94-19.28,6.78-14a363.42,363.42,0,0,0,57.47,39,334.54,334.54,0,0,0,65.92,27.46,6.65,6.65,0,0,1,4.35,4.05h0a28.89,28.89,0,0,0,3.55,6.13,7.94,7.94,0,0,0,1.5-8.77,30.12,30.12,0,0,1-1-22.69c5.06-14.23,20-22.54,34.37-19.19a27.67,27.67,0,0,1,4.86,1.6,7.49,7.49,0,0,0,8.49-1.78c-.7-.49-2.13-1.49-2.11-1.54a37,37,0,0,0-15.53-4.69l-.39,0-.38,0a35.31,35.31,0,0,0-31.67,17.47h0a537.4,537.4,0,0,1-58-27.53C103,106.65,77.82,89.88,59.4,74.78a54,54,0,0,1-10.9-9.49v0c-16.23-15-24.28-27.54-20.59-34.43s16.4-8.36,36.83-4.07c2.69,1.43,5.27,4.1,1.91,8.59l-.25.34c-1.37,1.6-2.7,3.23-4,4.92-6,7.92-6.72,14.68-3.61,24.08,0,0,7.58-13.72,13.84-21.25a93.25,93.25,0,0,1,27.51-22.55,91.3,91.3,0,0,1,33.7-10.5,90.07,90.07,0,0,1,68,21.09A90.9,90.9,0,0,1,223.7,59.25c5.49,10.69,9.5,22.13,9.94,34.16l.12,3.38a13.07,13.07,0,0,1-.06,2,108.24,108.24,0,0,1-3.2,16.45.71.71,0,0,0,1,.82c6.13-2.59,13.73,6,16.15,9,.71.88,1.46,1.73,2.23,2.56,13.33,14.46,18.06,26.11,14.56,32.63a9.26,9.26,0,0,1-5.58,4.19,3.72,3.72,0,0,1-4.83-2.95,35.48,35.48,0,0,0-5-13.07l-.24.23A7.88,7.88,0,0,0,247,157.1a30.09,30.09,0,0,1,.72,19c-4.4,15.21-19.92,24.5-35,20.94a29,29,0,0,1-4.89-1.64,7.86,7.86,0,0,0-8.62,1.66,34.27,34.27,0,0,0,9.9,4.94,34.65,34.65,0,0,0,32.38-6.53,23.94,23.94,0,0,1,2.91-2.11l1-.58a29.85,29.85,0,0,1,12-4c14.28-1.54,24.32-6,28.12-13.07C293.32,161.13,277.35,135.4,243.66,107.37Z"/></g></g></svg>